<?xml version="1.0" encoding="UTF-8"?>
<!DOCTYPE svg PUBLIC "-//W3C//DTD SVG 1.1//EN" "http://www.w3.org/Graphics/SVG/1.1/DTD/svg11.dtd">
<svg xmlns="http://www.w3.org/2000/svg" version="1.1" width="284px" height="177px" style="shape-rendering:geometricPrecision; text-rendering:geometricPrecision; image-rendering:optimizeQuality; fill-rule:evenodd; clip-rule:evenodd" xmlns:xlink="http://www.w3.org/1999/xlink">
<g><path style="opacity:1" fill="#fefefe" d="M -0.5,-0.5 C 94.1667,-0.5 188.833,-0.5 283.5,-0.5C 283.5,58.5 283.5,117.5 283.5,176.5C 188.833,176.5 94.1667,176.5 -0.5,176.5C -0.5,117.5 -0.5,58.5 -0.5,-0.5 Z"/></g>
<g><path style="opacity:1" fill="#1a77f2" d="M 162.5,62.5 C 166.833,62.5 171.167,62.5 175.5,62.5C 175.823,55.9779 175.49,49.6446 174.5,43.5C 163.143,40.1301 152.143,40.9634 141.5,46C 136.422,49.7368 132.922,54.5701 131,60.5C 129.619,69.4321 129.119,78.4321 129.5,87.5C 123.167,87.5 116.833,87.5 110.5,87.5C 110.5,94.8333 110.5,102.167 110.5,109.5C 116.833,109.5 123.167,109.5 129.5,109.5C 129.833,127.179 129.5,144.846 128.5,162.5C 86.3592,151.514 65.5259,124.18 66,80.5C 73.3635,39.3029 97.8635,16.6362 139.5,12.5C 182.36,14.528 208.193,36.528 217,78.5C 218.449,123.202 197.616,151.202 154.5,162.5C 153.5,144.846 153.167,127.179 153.5,109.5C 159.5,109.5 165.5,109.5 171.5,109.5C 172.372,102.474 173.372,95.4735 174.5,88.5C 167.532,87.503 160.532,87.1697 153.5,87.5C 153.334,81.4908 153.501,75.4908 154,69.5C 155.406,65.3865 158.239,63.0532 162.5,62.5 Z"/></g>
<g><path style="opacity:1" fill="#d3e0fb" d="M 174.5,43.5 C 175.49,49.6446 175.823,55.9779 175.5,62.5C 171.167,62.5 166.833,62.5 162.5,62.5C 166.298,61.5166 170.298,61.1832 174.5,61.5C 174.5,55.5 174.5,49.5 174.5,43.5 Z"/></g>
</svg>
