<?xml version="1.0" encoding="UTF-8"?>
<!DOCTYPE svg PUBLIC "-//W3C//DTD SVG 1.1//EN" "http://www.w3.org/Graphics/SVG/1.1/DTD/svg11.dtd">
<svg xmlns="http://www.w3.org/2000/svg" version="1.1" width="1024px" height="1024px" style="shape-rendering:geometricPrecision; text-rendering:geometricPrecision; image-rendering:optimizeQuality; fill-rule:evenodd; clip-rule:evenodd" xmlns:xlink="http://www.w3.org/1999/xlink">
<g><path style="opacity:0.998" fill="#0274b3" d="M 64.5,2.5 C 362.5,2.33333 660.5,2.5 958.5,3C 989.416,9.24989 1009.58,27.4166 1019,57.5C 1020.05,63.1169 1020.72,68.7835 1021,74.5C 1021.67,365.5 1021.67,656.5 1021,947.5C 1017.98,987.524 996.812,1011.69 957.5,1020C 659.833,1020.67 362.167,1020.67 64.5,1020C 25.836,1011.16 5.00267,986.99 2,947.5C 1.33333,656.5 1.33333,365.5 2,74.5C 5.54929,35.4533 26.3826,11.4533 64.5,2.5 Z"/></g>
<g><path style="opacity:1" fill="#fefefe" d="M 217.5,142.5 C 262.257,140.613 293.757,159.946 312,200.5C 323.191,236.902 315.358,268.402 288.5,295C 261.179,317.758 230.512,323.425 196.5,312C 157.354,293.226 139.188,262.059 142,218.5C 147.936,185.138 166.436,161.638 197.5,148C 204.208,145.826 210.875,143.993 217.5,142.5 Z"/></g>
<g><path style="opacity:1" fill="#fefefe" d="M 668.5,372.5 C 706.146,369.283 742.479,374.45 777.5,388C 818.495,407.67 844.995,439.503 857,483.5C 864.765,511.615 869.099,540.281 870,569.5C 870.5,669.499 870.667,769.499 870.5,869.5C 820.167,869.5 769.833,869.5 719.5,869.5C 719.667,779.833 719.5,690.166 719,600.5C 718.129,586.678 716.129,573.012 713,559.5C 702.853,521.692 678.186,503.358 639,504.5C 590.089,505.399 561.422,530.066 553,578.5C 551.949,587.159 550.949,595.826 550,604.5C 549.5,692.833 549.333,781.166 549.5,869.5C 499.5,869.5 449.5,869.5 399.5,869.5C 399.5,707.833 399.5,546.167 399.5,384.5C 447.5,384.5 495.5,384.5 543.5,384.5C 543.5,406.5 543.5,428.5 543.5,450.5C 544.675,450.719 545.675,450.386 546.5,449.5C 565.798,417.336 593.131,394.836 628.5,382C 641.673,377.736 655.007,374.569 668.5,372.5 Z"/></g>
<g><path style="opacity:1" fill="#fefffe" d="M 153.5,384.5 C 203.5,384.5 253.5,384.5 303.5,384.5C 303.5,546.167 303.5,707.833 303.5,869.5C 253.5,869.5 203.5,869.5 153.5,869.5C 153.5,707.833 153.5,546.167 153.5,384.5 Z"/></g>
</svg>
